<?xml version="1.0" encoding="UTF-8"?>
<svg xmlns="http://www.w3.org/2000/svg" xmlns:xlink="http://www.w3.org/1999/xlink" width="200px" height="242px" viewBox="0 0 200 242" version="1.1">
<g id="surface1">
<path style=" stroke:none;fill-rule:nonzero;fill:rgb(54.901961%,19.215686%,13.72549%);fill-opacity:1;" d="M 16.132812 41.910156 L 0.0234375 49.960938 L 0.0234375 191.273438 L 16.132812 199.277344 L 16.230469 199.160156 L 16.230469 42.019531 L 16.132812 41.910156 "/>
<path style=" stroke:none;fill-rule:nonzero;fill:rgb(87.843137%,32.156863%,26.27451%);fill-opacity:1;" d="M 102.34375 178.769531 L 16.132812 199.277344 L 16.132812 41.910156 L 102.34375 61.972656 L 102.34375 178.769531 "/>
<path style=" stroke:none;fill-rule:nonzero;fill:rgb(54.901961%,19.215686%,13.72549%);fill-opacity:1;" d="M 63.429688 146.65625 L 99.996094 151.308594 L 100.226562 150.78125 L 100.433594 90.851562 L 99.996094 90.382812 L 63.429688 94.96875 L 63.429688 146.65625 "/>
<path style=" stroke:none;fill-rule:nonzero;fill:rgb(54.901961%,19.215686%,13.72549%);fill-opacity:1;" d="M 99.996094 178.996094 L 183.859375 199.320312 L 183.992188 199.113281 L 183.992188 42.050781 L 183.859375 41.910156 L 99.996094 62.203125 L 99.996094 178.996094 "/>
<path style=" stroke:none;fill-rule:nonzero;fill:rgb(87.843137%,32.156863%,26.27451%);fill-opacity:1;" d="M 136.574219 146.65625 L 99.996094 151.308594 L 99.996094 90.382812 L 136.574219 94.96875 L 136.574219 146.65625 "/>
<path style=" stroke:none;fill-rule:nonzero;fill:rgb(36.862745%,12.156863%,9.411765%);fill-opacity:1;" d="M 136.574219 69.96875 L 99.996094 76.632812 L 63.429688 69.96875 L 99.949219 60.402344 L 136.574219 69.96875 "/>
<path style=" stroke:none;fill-rule:nonzero;fill:rgb(94.901961%,69.019608%,66.27451%);fill-opacity:1;" d="M 136.574219 171.585938 L 99.996094 164.878906 L 63.429688 171.585938 L 99.953125 181.777344 L 136.574219 171.585938 "/>
<path style=" stroke:none;fill-rule:nonzero;fill:rgb(54.901961%,19.215686%,13.72549%);fill-opacity:1;" d="M 63.429688 69.96875 L 99.996094 60.925781 L 100.292969 60.835938 L 100.292969 0.246094 L 99.996094 0 L 63.429688 18.277344 L 63.429688 69.96875 "/>
<path style=" stroke:none;fill-rule:nonzero;fill:rgb(87.843137%,32.156863%,26.27451%);fill-opacity:1;" d="M 136.574219 69.96875 L 99.996094 60.925781 L 99.996094 0 L 136.574219 18.277344 L 136.574219 69.96875 "/>
<path style=" stroke:none;fill-rule:nonzero;fill:rgb(54.901961%,19.215686%,13.72549%);fill-opacity:1;" d="M 99.996094 241.554688 L 63.425781 223.28125 L 63.425781 171.589844 L 99.996094 180.632812 L 100.535156 181.242188 L 100.390625 240.5 L 99.996094 241.554688 "/>
<path style=" stroke:none;fill-rule:nonzero;fill:rgb(87.843137%,32.156863%,26.27451%);fill-opacity:1;" d="M 99.996094 241.554688 L 136.570312 223.28125 L 136.570312 171.589844 L 99.996094 180.632812 L 99.996094 241.554688 M 183.859375 41.910156 L 199.976562 49.960938 L 199.976562 191.273438 L 183.859375 199.320312 L 183.859375 41.910156 "/>
</g>
</svg>
